<svg height="512pt" viewBox="0 -45 512 512" width="512pt" xmlns="http://www.w3.org/2000/svg"><path d="m7.5 104h497v73.980469h-497zm0 0" fill="#ffdaaa"/><path d="m19.667969 177.980469h472.667969v235.519531h-472.667969zm0 0" fill="#ee8700"/><path d="m331.808594 255.492188v-33.167969h-32.460938v-20.847657h-25.886718v20.847657h-33.269532v88.378906h55.214844v25.285156h-55.214844v33.164063h33.269532v20.851562h25.886718v-20.851562h32.460938v-88.378906h-55.214844v-25.28125zm0 0" fill="#cd2a00"/><path d="m301.808594 255.492188v-33.167969h-32.460938v-20.847657h-25.886718v20.847657h-33.269532v88.378906h55.214844v25.285156h-55.214844v33.164063h33.269532v20.851562h25.886718v-20.851562h32.460938v-88.378906h-55.214844v-25.28125zm0 0" fill="#ffdaaa"/><path d="m191.347656 72.5h-153.664062l-12.984375 31.5h179.632812zm0 0" fill="#c6c5ca"/><path d="m116.683594 7.5h74.664062v34h-74.664062zm0 0" fill="#c6c5ca"/><path d="m141.847656 41.5h24.335938v31h-24.335938zm0 0" fill="#787680"/><path d="m470.167969 60h-211.335938c-5.855469 5.859375-9.140625 9.140625-15 15v29h241.332031v-29c-5.855468-5.859375-9.140624-9.140625-14.996093-15zm0 0" fill="#d1e7f8"/><path d="m7.5 104h30v73.980469h-30zm0 0" fill="#ff9478"/><path d="m19.667969 177.980469h30v235.519531h-30zm0 0" fill="#cd2a00"/><g fill="#ff9478"><path d="m265.40625 310.703125h30v25.285156h-30zm0 0"/><path d="m243.460938 201.476562h25.886718v20.847657h-25.886718zm0 0"/><path d="m243.460938 369.152344h25.886718v20.851562h-25.886718zm0 0"/><path d="m210.191406 335.988281h30v33.164063h-30zm0 0"/><path d="m210.191406 222.324219h30v88.378906h-30zm0 0"/></g><path d="m37.683594 72.5-12.984375 31.5h30l12.984375-31.5zm0 0" fill="#898890"/><path d="m116.683594 7.5h30v34h-30zm0 0" fill="#898890"/><path d="m141.847656 41.5h10v31h-10zm0 0" fill="#57565c"/><path d="m288.832031 60h-30c-5.855469 5.859375-9.140625 9.140625-15 15v29h30v-29c5.859375-5.859375 9.144531-9.140625 15-15zm0 0" fill="#9bc9ff"/><path d="m492.667969 96.5v-24.605469l-19.394531-19.394531h-217.546876l-19.394531 19.394531v24.605469h-26.976562l-12.984375-31.5h-22.6875v-16h25.164062v-49h-89.664062v49h25.164062v16h-101.6875l-12.984375 31.5h-19.675781v88.980469h512v-88.980469zm-241.335938-18.394531 10.609375-10.605469h205.117188l10.605468 10.605469v18.394531h-226.332031zm-127.148437-44.105469v-19h59.664062v19zm25.164062 15h9.335938v16h-9.335938zm-106.644531 31h143.625l6.800781 16.5h-157.226562zm454.296875 90.480469h-482v-58.980469h482zm0 0"/><path d="m484.832031 406h-457.664062v-15h101.832031v-15h-101.832031v-178.019531h-15v223.019531h487.664062v-223.019531h-15zm0 0"/><path d="m202.691406 328.488281v48.164063h33.269532v20.851562h40.886718v-20.851562h32.460938v-103.378906h-55.214844v-10.28125h55.214844v-48.167969h-32.460938v-20.847657h-40.886718v20.847657h-33.269532v103.378906h55.214844v10.285156zm15-25.28125v-73.382812h33.269532v-20.847657h10.886718v20.847657h32.460938v18.167969h-55.214844v40.28125h55.214844v73.382812h-32.460938v20.847656h-10.886718v-20.847656h-33.269532v-18.167969h55.214844v-40.28125zm0 0"/><path d="m487.667969 136.5h-149.335938v-15h149.332031v15zm-159.335938 0h-15v-15h15zm-25 0h-15v-15h15zm0 0" fill="#fff"/><path d="m374 89.5h-54.167969v-15h54.167969zm-64.167969 0h-15v-15h15zm-25 0h-15v-15h15zm0 0" fill="#fff"/></svg>