<svg id="Capa_1" enable-background="new 0 0 512.007 512.007" height="512" viewBox="0 0 512.007 512.007" width="512" xmlns="http://www.w3.org/2000/svg"><g><path d="m505.998 184.01-241-181c-2.666-2.007-5.83-3.01-8.994-3.01s-6.328 1.003-8.994 3.01l-241 181c-1.89 1.414-3.391 3.234-4.42 5.29l28.881 51.707 186.191 161.735h39.342 39.342l186.191-161.735 28.881-51.707c-1.029-2.056-2.531-3.876-4.42-5.29z" fill="#fabe2c"/><path d="m481.537 241.007 28.881-51.707c-1.029-2.056-2.531-3.876-4.42-5.29l-241-181c-2.666-2.007-5.83-3.01-8.994-3.01v402.743h39.342z" fill="#ff9100"/><path d="m406.004 61.007h-150-150c-8.291 0-15 6.709-15 15v345h165 165v-345c0-8.291-6.709-15-15-15z" fill="#edf5ff"/><path d="m421.004 76.007c0-8.291-6.709-15-15-15h-150v360h165z" fill="#d5e8fe"/><path d="m510.418 189.3-245.072 183.443c-2.734 2.175-6.039 3.265-9.342 3.265-3.305 0-6.608-1.089-9.342-3.265l-245.073-183.443c-1.029 2.056-1.586 4.349-1.586 6.707v301c0 8.291 6.709 15 15 15h241 241c8.291 0 15-6.709 15-15v-301c.001-2.358-.556-4.651-1.585-6.707z" fill="#ffde46"/><path d="m512.004 497.007v-301c0-2.358-.557-4.651-1.586-6.707l-245.072 183.443c-2.734 2.175-6.039 3.265-9.342 3.265v136h241c8.291-.001 15-6.71 15-15.001z" fill="#fabe2c"/><g><path d="m96.013 451.007c-4.57 0-9.067-2.065-12.012-6.006-4.98-6.621-3.633-16.025 3.003-20.991l70.005-52.5c6.592-4.995 16.011-3.647 20.991 3.003 4.98 6.621 3.633 16.025-3.003 20.991l-70.005 52.5c-2.694 2.022-5.844 3.003-8.979 3.003z" fill="#fabe2c"/></g><g><path d="m415.994 451.007c-3.135 0-6.284-.981-8.979-3.003l-70.005-52.5c-6.636-4.966-7.983-14.37-3.003-20.991 4.966-6.636 14.37-7.954 20.991-3.003l70.005 52.5c6.636 4.966 7.983 14.37 3.003 20.991-2.945 3.941-7.442 6.006-12.012 6.006z" fill="#ff9100"/></g><g><path d="m331.004 166.007c0 8.401-6.599 15-15 15h-120c-8.401 0-15-6.599-15-15s6.599-15 15-15h120c8.401 0 15 6.599 15 15z" fill="#d5e8fe"/></g><g><path d="m331.004 226.007c0 8.401-6.599 15-15 15h-120c-8.401 0-15-6.599-15-15s6.599-15 15-15h120c8.401 0 15 6.599 15 15z" fill="#d5e8fe"/></g><g fill="#b5dbff"><path d="m331.004 226.007c0 8.401-6.599 15-15 15h-60v-30h60c8.401 0 15 6.599 15 15z"/><path d="m316.004 181.007h-60v-30h60c8.401 0 15 6.599 15 15s-6.599 15-15 15z"/></g></g></svg>